HIERARCHY
ROOT Hips
{
	OFFSET 0.000000 97.167313 0.000000
	CHANNELS 6 Xposition Yposition Zposition Xrotation Yrotation Zrotation
	JOINT Spine
	{
		OFFSET 0.000000 13.784798 0.064400
		CHANNELS 3 Xrotation Yrotation Zrotation
		JOINT Spine1
		{
			OFFSET 0.000000 12.037903 0.404700
			CHANNELS 3 Xrotation Yrotation Zrotation
			JOINT Spine2
			{
				OFFSET 0.000000 17.795601 0.420200
				CHANNELS 3 Xrotation Yrotation Zrotation
				JOINT Neck
				{
					OFFSET 0.000000 39.131302 11.954600
					CHANNELS 3 Xrotation Yrotation Zrotation
					JOINT Head
					{
						OFFSET 0.000000 14.456192 15.627699
						CHANNELS 3 Xrotation Yrotation Zrotation
						JOINT HeadTop_End
						{
							OFFSET 0.000000 15.703506 7.603401
							CHANNELS 3 Xrotation Yrotation Zrotation
							End Site
							{
								OFFSET 0.000000 17.447403 0.000000
							}
						}
					}
				}
				JOINT LeftShoulder
				{
					OFFSET 17.399500 24.608795 1.168800
					CHANNELS 3 Xrotation Yrotation Zrotation
					JOINT LeftArm
					{
						OFFSET 18.980635 5.765305 1.818600
						CHANNELS 3 Xrotation Yrotation Zrotation
						JOINT LeftForeArm
						{
							OFFSET 49.290169 0.000000 0.000000
							CHANNELS 3 Xrotation Yrotation Zrotation
							JOINT LeftHand
							{
								OFFSET 31.562012 0.000000 0.000000
								CHANNELS 3 Xrotation Yrotation Zrotation
								JOINT LeftHandThumb1
								{
									OFFSET 6.133995 -4.388519 7.076070
									CHANNELS 3 Xrotation Yrotation Zrotation
									JOINT LeftHandThumb2
									{
										OFFSET 6.037666 -3.485840 3.485847
										CHANNELS 3 Xrotation Yrotation Zrotation
										JOINT LeftHandThumb3
										{
											OFFSET 6.496506 -3.750763 3.750761
											CHANNELS 3 Xrotation Yrotation Zrotation
											JOINT LeftHandThumb4
											{
												OFFSET 5.616882 -3.242905 3.242910
												CHANNELS 3 Xrotation Yrotation Zrotation
												End Site
												{
													OFFSET -1.254608 7.132141 0.375429
												}
											}
										}
									}
								}
								JOINT LeftHandPinky1
								{
									OFFSET 18.920792 -0.453171 -11.426712
									CHANNELS 3 Xrotation Yrotation Zrotation
									JOINT LeftHandPinky2
									{
										OFFSET 4.919586 0.000000 0.000000
										CHANNELS 3 Xrotation Yrotation Zrotation
										JOINT LeftHandPinky3
										{
											OFFSET 5.233047 0.000000 0.000000
											CHANNELS 3 Xrotation Yrotation Zrotation
											JOINT LeftHandPinky4
											{
												OFFSET 5.571716 0.000000 0.000000
												CHANNELS 3 Xrotation Yrotation Zrotation
												End Site
												{
													OFFSET -3.459808 4.342407 -0.466164
												}
											}
										}
									}
								}
								JOINT LeftHandRing1
								{
									OFFSET 22.726120 -0.094986 -6.500475
									CHANNELS 3 Xrotation Yrotation Zrotation
									JOINT LeftHandRing2
									{
										OFFSET 6.408615 0.000000 0.000000
										CHANNELS 3 Xrotation Yrotation Zrotation
										JOINT LeftHandRing3
										{
											OFFSET 6.150223 0.000000 0.000000
											CHANNELS 3 Xrotation Yrotation Zrotation
											JOINT LeftHandRing4
											{
												OFFSET 6.145386 0.000000 0.000000
												CHANNELS 3 Xrotation Yrotation Zrotation
												End Site
												{
													OFFSET -3.671402 4.923981 -0.202372
												}
											}
										}
									}
								}
								JOINT LeftHandMiddle1
								{
									OFFSET 23.373947 0.000000 0.000001
									CHANNELS 3 Xrotation Yrotation Zrotation
									JOINT LeftHandMiddle2
									{
										OFFSET 6.996567 0.000000 0.000000
										CHANNELS 3 Xrotation Yrotation Zrotation
										JOINT LeftHandMiddle3
										{
											OFFSET 7.015945 0.000000 0.000000
											CHANNELS 3 Xrotation Yrotation Zrotation
											JOINT LeftHandMiddle4
											{
												OFFSET 7.721573 0.000000 0.000000
												CHANNELS 3 Xrotation Yrotation Zrotation
												End Site
												{
													OFFSET -4.651108 6.158463 0.251582
												}
											}
										}
									}
								}
								JOINT LeftHandIndex1
								{
									OFFSET 21.310577 -0.490082 6.209344
									CHANNELS 3 Xrotation Yrotation Zrotation
									JOINT LeftHandIndex2
									{
										OFFSET 7.536453 0.000000 0.000000
										CHANNELS 3 Xrotation Yrotation Zrotation
										JOINT LeftHandIndex3
										{
											OFFSET 7.512344 0.000000 0.000000
											CHANNELS 3 Xrotation Yrotation Zrotation
											JOINT LeftHandIndex4
											{
												OFFSET 10.212402 0.000000 0.000001
												CHANNELS 3 Xrotation Yrotation Zrotation
												End Site
												{
													OFFSET -5.180801 8.690506 1.388433
												}
											}
										}
									}
								}
							}
						}
					}
				}
				JOINT RightShoulder
				{
					OFFSET -17.399500 24.608795 1.168800
					CHANNELS 3 Xrotation Yrotation Zrotation
					JOINT RightArm
					{
						OFFSET -18.980635 5.765305 1.818600
						CHANNELS 3 Xrotation Yrotation Zrotation
						JOINT RightForeArm
						{
							OFFSET -49.290169 0.000000 0.000000
							CHANNELS 3 Xrotation Yrotation Zrotation
							JOINT RightHand
							{
								OFFSET -31.562012 0.000000 0.000000
								CHANNELS 3 Xrotation Yrotation Zrotation
								JOINT RightHandThumb1
								{
									OFFSET -6.133995 -4.388519 7.076070
									CHANNELS 3 Xrotation Yrotation Zrotation
									JOINT RightHandThumb2
									{
										OFFSET -6.037666 -3.485840 3.485847
										CHANNELS 3 Xrotation Yrotation Zrotation
										JOINT RightHandThumb3
										{
											OFFSET -6.496506 -3.750763 3.750761
											CHANNELS 3 Xrotation Yrotation Zrotation
											JOINT RightHandThumb4
											{
												OFFSET -5.616882 -3.242905 3.242910
												CHANNELS 3 Xrotation Yrotation Zrotation
												End Site
												{
													OFFSET 1.254608 7.132141 0.375429
												}
											}
										}
									}
								}
								JOINT RightHandIndex1
								{
									OFFSET -21.310577 -0.490082 6.209344
									CHANNELS 3 Xrotation Yrotation Zrotation
									JOINT RightHandIndex2
									{
										OFFSET -7.536453 0.000000 0.000000
										CHANNELS 3 Xrotation Yrotation Zrotation
										JOINT RightHandIndex3
										{
											OFFSET -7.512344 0.000000 0.000000
											CHANNELS 3 Xrotation Yrotation Zrotation
											JOINT RightHandIndex4
											{
												OFFSET -10.212402 0.000000 0.000001
												CHANNELS 3 Xrotation Yrotation Zrotation
												End Site
												{
													OFFSET 5.180801 8.690506 1.388433
												}
											}
										}
									}
								}
								JOINT RightHandMiddle1
								{
									OFFSET -23.373947 0.000000 0.000001
									CHANNELS 3 Xrotation Yrotation Zrotation
									JOINT RightHandMiddle2
									{
										OFFSET -6.996567 0.000000 0.000000
										CHANNELS 3 Xrotation Yrotation Zrotation
										JOINT RightHandMiddle3
										{
											OFFSET -7.015945 0.000000 0.000000
											CHANNELS 3 Xrotation Yrotation Zrotation
											JOINT RightHandMiddle4
											{
												OFFSET -7.721573 0.000000 0.000000
												CHANNELS 3 Xrotation Yrotation Zrotation
												End Site
												{
													OFFSET 4.651108 6.158463 0.251582
												}
											}
										}
									}
								}
								JOINT RightHandRing1
								{
									OFFSET -22.726120 -0.094986 -6.500475
									CHANNELS 3 Xrotation Yrotation Zrotation
									JOINT RightHandRing2
									{
										OFFSET -6.408615 0.000000 0.000000
										CHANNELS 3 Xrotation Yrotation Zrotation
										JOINT RightHandRing3
										{
											OFFSET -6.150223 0.000000 0.000000
											CHANNELS 3 Xrotation Yrotation Zrotation
											JOINT RightHandRing4
											{
												OFFSET -6.145386 0.000000 0.000000
												CHANNELS 3 Xrotation Yrotation Zrotation
												End Site
												{
													OFFSET 3.671402 4.923981 -0.202372
												}
											}
										}
									}
								}
								JOINT RightHandPinky1
								{
									OFFSET -18.920792 -0.453171 -11.426712
									CHANNELS 3 Xrotation Yrotation Zrotation
									JOINT RightHandPinky2
									{
										OFFSET -4.919586 0.000000 0.000000
										CHANNELS 3 Xrotation Yrotation Zrotation
										JOINT RightHandPinky3
										{
											OFFSET -5.233047 0.000000 0.000000
											CHANNELS 3 Xrotation Yrotation Zrotation
											JOINT RightHandPinky4
											{
												OFFSET -5.571716 0.000000 0.000000
												CHANNELS 3 Xrotation Yrotation Zrotation
												End Site
												{
													OFFSET 3.459808 4.342407 -0.466164
												}
											}
										}
									}
								}
							}
						}
					}
				}
			}
		}
	}
	JOINT LeftUpLeg
	{
		OFFSET 19.899099 -7.885101 -3.429500
		CHANNELS 3 Xrotation Yrotation Zrotation
		JOINT LeftLeg
		{
			OFFSET 1.745560 -36.997807 10.304700
			CHANNELS 3 Xrotation Yrotation Zrotation
			JOINT LeftFoot
			{
				OFFSET -1.745558 -29.803308 -13.615400
				CHANNELS 3 Xrotation Yrotation Zrotation
				JOINT LeftToeBase
				{
					OFFSET 1.181900 -18.539904 15.226099
					CHANNELS 3 Xrotation Yrotation Zrotation
					JOINT LeftToe_End
					{
						OFFSET -0.863701 1.402801 16.534700
						CHANNELS 3 Xrotation Yrotation Zrotation
						End Site
						{
							OFFSET 0.000000 16.616566 0.000000
						}
					}
				}
			}
		}
	}
	JOINT RightUpLeg
	{
		OFFSET -19.899099 -7.885101 -3.429500
		CHANNELS 3 Xrotation Yrotation Zrotation
		JOINT RightLeg
		{
			OFFSET -1.745560 -36.997807 10.304700
			CHANNELS 3 Xrotation Yrotation Zrotation
			JOINT RightFoot
			{
				OFFSET 1.745558 -29.803308 -13.615400
				CHANNELS 3 Xrotation Yrotation Zrotation
				JOINT RightToeBase
				{
					OFFSET -1.181900 -18.539904 15.226099
					CHANNELS 3 Xrotation Yrotation Zrotation
					JOINT RightToe_End
					{
						OFFSET 0.863701 1.402801 16.534700
						CHANNELS 3 Xrotation Yrotation Zrotation
						End Site
						{
							OFFSET 0.000000 16.616566 0.000000
						}
					}
				}
			}
		}
	}
}
MOTION
Frames: 4
Frame Time: 0.033333
-2.277675 66.711975 -4.288635 -102.719775 -1.361238 -0.825443 -15.543612 -0.211241 0.305613 -4.103482 -1.073964 0.078370 -4.122573 -1.015752 0.134796 -33.785213 -1.165512 0.983034 -27.896531 -9.201950 3.834818 0.000000 -0.000001 -0.000000 0.143376 -0.099653 -2.296607 -148.777926 -24.730682 -63.838752 -0.000000 -41.313372 -0.000008 57.308832 -16.916396 45.494104 -4.537373 -8.516131 10.954993 -5.004385 17.088510 11.591543 -13.126516 -24.500266 5.384325 -0.000003 -0.000000 0.000000 -7.912101 24.868312 20.715675 0.410320 2.155777 -21.551045 0.198062 -1.511908 14.925331 0.000000 0.000000 -0.000002 -4.521695 12.315067 23.258640 0.123555 1.198105 -11.775785 0.198066 -1.511916 14.925338 0.000000 0.000000 0.000003 1.019088 -0.849848 33.139702 0.714828 2.806286 -28.576559 0.198049 -1.511916 14.925357 -0.000000 -0.000000 -0.000003 8.027033 -14.343739 27.068284 0.204368 1.535382 -15.162834 0.198054 -1.511895 14.925353 0.000001 0.000003 0.000002 -1.664218 -10.146705 -8.562206 -142.420372 -6.281192 52.630262 0.000012 45.845029 0.000001 71.934992 31.027968 -43.248211 -17.034060 10.200775 -0.400076 8.115830 -18.999771 -2.828610 -6.832345 -8.332407 -13.189982 -0.000001 0.000000 -0.000001 3.665230 5.433571 -29.387849 0.693387 -2.446908 31.638748 0.042385 -0.627710 7.729309 -0.000000 -0.000001 -0.000001 -1.361012 -3.544752 -29.015371 0.819677 -2.640683 34.483371 0.041118 -0.618232 7.611676 0.000000 0.000001 -0.000001 -3.786110 -9.267359 -25.834584 0.706086 -2.467331 31.934635 0.039936 -0.609206 7.500110 -0.000002 -0.000000 -0.000003 -7.748278 -18.830669 -25.255668 0.717013 -2.484775 32.187779 0.152056 -1.181551 14.665943 0.000000 0.000000 0.000001 8.291490 13.321043 37.305547 85.118678 3.359997 -1.600756 -13.977840 -0.496940 4.955013 -3.935016 0.000012 0.000001 -0.000000 0.000000 -0.000000 19.283540 -11.340600 -32.984787 83.115056 -2.111343 -0.016684 -8.266038 -12.402118 -9.098101 0.000004 0.000010 0.000001 -0.000000 -0.000004 -0.000000 
-1.544171 61.504105 -1.396736 -90.949296 -0.345894 -1.318761 -18.947901 -0.541730 0.800277 -4.117337 -1.763560 0.288831 -4.144952 -1.765998 0.267302 -35.357058 -1.561488 1.597122 -24.330512 -9.076118 3.354923 0.000000 0.000000 -0.000000 -0.827901 1.175035 -4.164381 -143.480090 -32.554461 -48.194173 0.000014 -39.444435 -0.000013 60.304690 -24.638693 29.364995 -2.497113 -7.856266 7.958234 -6.946120 23.399791 11.578820 -9.605271 -11.959572 9.856542 -0.000001 0.000001 -0.000001 -1.149524 24.916356 4.255356 0.375844 2.066374 -20.615143 0.198050 -1.511900 14.925341 0.000003 -0.000000 -0.000000 -1.547995 13.241473 8.718883 0.105233 1.106427 -10.863373 0.198054 -1.511898 14.925355 -0.000000 -0.000001 0.000003 0.393585 0.420726 19.283241 0.714836 2.806300 -28.576566 0.198072 -1.511915 14.925357 0.000001 0.000001 0.000001 3.309528 -12.751879 11.983950 0.194311 1.497813 -14.782952 0.198062 -1.511916 14.925333 -0.000000 0.000001 0.000001 -1.001095 -11.553347 -7.675662 -138.114293 0.830868 35.495308 -0.000003 38.316094 0.000007 76.947026 46.341601 -41.914842 -4.403682 4.004093 0.121667 12.214091 -29.646262 -3.981865 -3.722792 -23.959107 -18.313380 0.000001 -0.000001 0.000003 3.072177 8.687328 -16.066306 0.821877 -2.643915 34.531514 0.289964 -1.619214 20.304462 -0.000000 -0.000003 -0.000001 0.121009 -1.340814 -16.615472 0.846701 -2.679575 35.065857 0.284819 -1.605231 20.121203 0.000002 0.000003 -0.000001 -1.533333 -6.925434 -16.804357 0.836795 -2.665429 34.853369 0.279927 -1.591828 19.946114 -0.000004 -0.000002 -0.000003 -4.880245 -17.499582 -18.173547 0.834648 -2.662371 34.807788 0.256670 -1.526266 19.091451 0.000001 0.000000 0.000001 7.253332 6.576248 42.033845 95.833291 0.220697 -3.035524 -7.112476 0.635519 7.981796 -3.251838 -0.000019 0.000001 0.000000 0.000000 0.000001 17.872713 -10.780688 -36.467210 91.777074 -1.093424 -0.726498 -5.034913 -14.646388 -8.339827 -0.000015 -0.000007 0.000006 -0.000001 0.000000 0.000003 
-0.386157 52.796478 1.673286 -79.395307 0.735282 -2.093794 -18.365793 -1.434768 1.003097 -2.664560 -2.356435 0.658867 -2.695469 -2.410015 0.574900 -34.559347 -1.982316 2.210438 -22.046741 -8.632008 4.632770 -0.000001 0.000000 -0.000000 -2.124009 1.340571 -7.775333 -124.341449 -36.671788 -20.867601 0.000036 -41.717238 0.000009 57.510562 -27.665956 25.502526 -0.320612 -7.265580 4.751426 -8.772829 29.518503 12.001523 -7.044275 1.377420 13.615312 0.000001 0.000001 -0.000001 4.961414 22.819969 -13.261377 0.369324 2.048975 -20.433657 0.198058 -1.511909 14.925333 -0.000000 0.000003 -0.000003 1.426043 13.224112 -6.985246 0.111502 1.138745 -11.184577 0.198062 -1.511916 14.925352 -0.000003 0.000003 0.000007 0.081006 1.913811 4.361051 0.714829 2.806277 -28.576559 0.198052 -1.511899 14.925352 0.000002 -0.000003 0.000004 -0.456000 -9.622595 -3.177572 0.194627 1.499011 -14.795038 0.198050 -1.511910 14.925336 -0.000003 0.000001 0.000002 0.896792 -11.130095 -2.544912 -123.573217 4.263059 17.292407 -0.000007 40.466562 0.000002 48.814884 38.302830 -35.842907 -3.048951 3.354151 0.380764 12.686244 -30.848174 -4.063550 -3.396854 -25.750027 -18.800266 -0.000001 0.000001 0.000001 1.649792 8.275420 -8.507875 0.893891 -2.745501 36.062760 0.336939 -1.740867 21.906648 0.000000 0.000000 0.000002 0.096206 -1.613418 -8.234944 0.908468 -2.765381 36.366058 0.331155 -1.726438 21.715550 0.000003 0.000001 -0.000004 -0.655601 -7.108910 -7.945925 0.910509 -2.768133 36.408559 0.325707 -1.712665 21.533409 -0.000003 -0.000002 -0.000005 -2.007800 -17.667135 -8.133533 0.902957 -2.757900 36.251970 0.274987 -1.578126 19.767194 0.000001 -0.000001 0.000000 3.251029 -5.537096 49.849979 104.540239 -10.341038 -6.432006 0.236321 0.308746 5.500010 -6.747743 0.021181 -1.705217 -0.000001 0.000001 0.000001 12.185380 -3.019176 -45.486543 101.901614 4.228816 2.574943 -2.235211 -11.034882 -6.469628 -13.602614 -3.917025 20.671047 0.000001 -0.000001 -0.000000 
0.419681 42.314026 3.910149 -68.773591 0.889905 -2.542759 -12.615048 -2.203593 0.879699 -0.184912 -2.427644 1.110619 -0.207430 -2.475959 1.055590 -32.231755 -2.337398 2.724581 -23.226996 -6.581009 7.843674 0.000002 0.000000 0.000000 -2.940381 0.525518 -11.329710 -100.082468 -30.041033 -0.509680 0.000009 -30.094944 0.000000 54.063867 -15.658099 42.701858 1.496328 -6.862756 2.067685 -9.205202 33.576196 12.058083 -5.578872 12.242717 16.278637 0.000003 -0.000001 -0.000003 8.483295 19.513709 -27.841915 0.417391 2.173529 -21.737982 0.162547 -1.371828 13.514181 -0.000001 0.000000 -0.000002 3.452244 12.383836 -20.396002 0.168586 1.396722 -13.764491 0.175473 -1.424512 14.043917 0.000002 0.000002 0.000005 0.128231 3.225815 -8.479985 0.714838 2.806293 -28.576583 0.178436 -1.436300 14.162530 -0.000002 -0.000002 0.000009 -2.230611 -6.145154 -14.588350 0.214855 1.573594 -15.549615 0.172867 -1.414037 13.938526 -0.000003 -0.000002 -0.000002 2.497746 -8.293552 3.560351 -124.609070 -5.370142 8.867244 0.000010 44.689771 0.000001 19.389271 21.817900 -25.186244 -3.107290 3.426897 0.380768 12.674633 -30.818773 -4.061675 -3.383456 -25.740594 -18.709753 -0.000000 0.000000 0.000002 -1.310006 4.999003 10.553896 1.085932 -2.991163 39.899117 0.354183 -1.783099 22.467163 -0.000002 -0.000001 -0.000001 0.187273 -3.412594 14.024826 1.106988 -3.016140 40.301056 0.348214 -1.768639 22.274859 -0.000001 -0.000002 -0.000007 1.590265 -8.002647 17.116312 1.107559 -3.016804 40.311817 0.342640 -1.754957 22.093318 0.000001 0.000001 -0.000002 5.178138 -16.305159 21.225498 1.086455 -2.991796 39.909314 0.290455 -1.620517 20.321580 -0.000001 0.000001 0.000002 -1.487946 -19.825362 61.593287 110.555669 -27.331215 -11.815841 -0.124348 -0.206668 -0.264199 -21.847955 0.798029 -5.317174 -0.000000 0.000002 0.000000 9.165655 13.358564 -66.787734 112.280346 19.331712 12.857220 -6.057922 -1.051825 -10.400268 -20.819856 -0.762114 9.065126 0.000001 0.000002 0.000001 
